<mxfile host="app.diagrams.net" modified="2023-12-20T11:47:15.562Z" agent="Mozilla/5.0 (X11; Linux x86_64; rv:120.0) Gecko/20100101 Firefox/120.0" etag="SD5SLy9a8EgwtT9JZzZl" version="22.1.11" type="device">
  <diagram name="Page-1" id="iZpaTg9eCtCeVAXnSAsT">
    <mxGraphModel dx="1434" dy="759" grid="1" gridSize="10" guides="1" tooltips="1" connect="1" arrows="1" fold="1" page="1" pageScale="1" pageWidth="850" pageHeight="1100" math="0" shadow="0">
      <root>
        <mxCell id="0" />
        <mxCell id="1" parent="0" />
        <mxCell id="W1-9YPZCWMsQHMN3Iiyv-13" style="edgeStyle=orthogonalEdgeStyle;rounded=0;orthogonalLoop=1;jettySize=auto;html=1;exitX=0.5;exitY=0.5;exitDx=0;exitDy=0;exitPerimeter=0;entryX=0;entryY=0.5;entryDx=0;entryDy=0;" parent="1" source="W1-9YPZCWMsQHMN3Iiyv-1" target="W1-9YPZCWMsQHMN3Iiyv-12" edge="1">
          <mxGeometry relative="1" as="geometry" />
        </mxCell>
        <mxCell id="W1-9YPZCWMsQHMN3Iiyv-1" value="client" style="shape=umlActor;verticalLabelPosition=bottom;verticalAlign=top;html=1;outlineConnect=0;fillColor=#00CCCC;" parent="1" vertex="1">
          <mxGeometry x="60" y="270" width="30" height="60" as="geometry" />
        </mxCell>
        <mxCell id="W1-9YPZCWMsQHMN3Iiyv-2" value="&lt;font style=&quot;font-size: 13px;&quot;&gt;configuration&lt;/font&gt;" style="whiteSpace=wrap;html=1;shape=mxgraph.basic.document" parent="1" vertex="1">
          <mxGeometry x="300" y="560" width="80" height="90" as="geometry" />
        </mxCell>
        <mxCell id="W1-9YPZCWMsQHMN3Iiyv-3" value="instructions" style="whiteSpace=wrap;html=1;shape=mxgraph.basic.document" parent="1" vertex="1">
          <mxGeometry x="150" y="560" width="70" height="90" as="geometry" />
        </mxCell>
        <mxCell id="W1-9YPZCWMsQHMN3Iiyv-6" value="" style="endArrow=classic;html=1;rounded=0;edgeStyle=orthogonalEdgeStyle;entryX=0.5;entryY=0;entryDx=0;entryDy=0;entryPerimeter=0;" parent="1" target="W1-9YPZCWMsQHMN3Iiyv-3" edge="1">
          <mxGeometry width="50" height="50" relative="1" as="geometry">
            <mxPoint x="75" y="350" as="sourcePoint" />
            <mxPoint x="250" y="410" as="targetPoint" />
            <Array as="points">
              <mxPoint x="75" y="480" />
              <mxPoint x="185" y="480" />
            </Array>
          </mxGeometry>
        </mxCell>
        <mxCell id="W1-9YPZCWMsQHMN3Iiyv-7" value="" style="endArrow=classic;html=1;rounded=0;edgeStyle=orthogonalEdgeStyle;entryX=0.5;entryY=0;entryDx=0;entryDy=0;entryPerimeter=0;exitX=0.5;exitY=0;exitDx=0;exitDy=0;exitPerimeter=0;" parent="1" source="W1-9YPZCWMsQHMN3Iiyv-3" target="W1-9YPZCWMsQHMN3Iiyv-2" edge="1">
          <mxGeometry width="50" height="50" relative="1" as="geometry">
            <mxPoint x="210" y="400" as="sourcePoint" />
            <mxPoint x="250" y="410" as="targetPoint" />
            <Array as="points">
              <mxPoint x="185" y="480" />
              <mxPoint x="340" y="480" />
            </Array>
          </mxGeometry>
        </mxCell>
        <mxCell id="W1-9YPZCWMsQHMN3Iiyv-9" value="" style="shape=singleArrow;whiteSpace=wrap;html=1;fillColor=#000000;" parent="1" vertex="1">
          <mxGeometry x="100" y="445" width="50" height="20" as="geometry" />
        </mxCell>
        <mxCell id="W1-9YPZCWMsQHMN3Iiyv-10" value="0: writes to" style="text;html=1;strokeColor=none;fillColor=none;align=center;verticalAlign=middle;whiteSpace=wrap;rounded=0;" parent="1" vertex="1">
          <mxGeometry x="90" y="425" width="70" height="20" as="geometry" />
        </mxCell>
        <mxCell id="W1-9YPZCWMsQHMN3Iiyv-18" style="edgeStyle=orthogonalEdgeStyle;rounded=0;orthogonalLoop=1;jettySize=auto;html=1;entryX=0;entryY=0.5;entryDx=0;entryDy=0;" parent="1" source="W1-9YPZCWMsQHMN3Iiyv-12" target="W1-9YPZCWMsQHMN3Iiyv-17" edge="1">
          <mxGeometry relative="1" as="geometry" />
        </mxCell>
        <mxCell id="W1-9YPZCWMsQHMN3Iiyv-25" style="edgeStyle=orthogonalEdgeStyle;rounded=0;orthogonalLoop=1;jettySize=auto;html=1;exitX=0.5;exitY=1;exitDx=0;exitDy=0;entryX=0;entryY=0.5;entryDx=0;entryDy=0;" parent="1" source="W1-9YPZCWMsQHMN3Iiyv-12" target="W1-9YPZCWMsQHMN3Iiyv-21" edge="1">
          <mxGeometry relative="1" as="geometry">
            <Array as="points">
              <mxPoint x="295" y="445" />
            </Array>
          </mxGeometry>
        </mxCell>
        <mxCell id="W1-9YPZCWMsQHMN3Iiyv-26" style="edgeStyle=orthogonalEdgeStyle;rounded=0;orthogonalLoop=1;jettySize=auto;html=1;entryX=0;entryY=0.5;entryDx=0;entryDy=0;" parent="1" source="W1-9YPZCWMsQHMN3Iiyv-12" target="W1-9YPZCWMsQHMN3Iiyv-22" edge="1">
          <mxGeometry relative="1" as="geometry">
            <Array as="points">
              <mxPoint x="290" y="145" />
            </Array>
          </mxGeometry>
        </mxCell>
        <mxCell id="W1-9YPZCWMsQHMN3Iiyv-12" value="DI_MIPS" style="html=1;whiteSpace=wrap;fillColor=#00CCCC;" parent="1" vertex="1">
          <mxGeometry x="240" y="275" width="110" height="50" as="geometry" />
        </mxCell>
        <mxCell id="W1-9YPZCWMsQHMN3Iiyv-14" value="" style="shape=singleArrow;whiteSpace=wrap;html=1;fillColor=#000000;" parent="1" vertex="1">
          <mxGeometry x="140" y="270" width="50" height="20" as="geometry" />
        </mxCell>
        <mxCell id="W1-9YPZCWMsQHMN3Iiyv-16" value="1: begin()" style="text;html=1;strokeColor=none;fillColor=none;align=center;verticalAlign=middle;whiteSpace=wrap;rounded=0;" parent="1" vertex="1">
          <mxGeometry x="130" y="250" width="70" height="20" as="geometry" />
        </mxCell>
        <mxCell id="W1-9YPZCWMsQHMN3Iiyv-17" value="File_Reader" style="html=1;whiteSpace=wrap;fillColor=#00CCCC;" parent="1" vertex="1">
          <mxGeometry x="480" y="275" width="110" height="50" as="geometry" />
        </mxCell>
        <mxCell id="W1-9YPZCWMsQHMN3Iiyv-19" value="" style="shape=singleArrow;whiteSpace=wrap;html=1;fillColor=#000000;" parent="1" vertex="1">
          <mxGeometry x="380" y="270" width="50" height="20" as="geometry" />
        </mxCell>
        <mxCell id="W1-9YPZCWMsQHMN3Iiyv-20" value="1.2.2: readNextLine()" style="text;html=1;strokeColor=none;fillColor=none;align=center;verticalAlign=middle;whiteSpace=wrap;rounded=0;" parent="1" vertex="1">
          <mxGeometry x="350" y="250" width="120" height="20" as="geometry" />
        </mxCell>
        <mxCell id="W1-9YPZCWMsQHMN3Iiyv-27" style="edgeStyle=orthogonalEdgeStyle;rounded=0;orthogonalLoop=1;jettySize=auto;html=1;entryX=0.5;entryY=1;entryDx=0;entryDy=0;" parent="1" source="W1-9YPZCWMsQHMN3Iiyv-21" target="W1-9YPZCWMsQHMN3Iiyv-23" edge="1">
          <mxGeometry relative="1" as="geometry" />
        </mxCell>
        <mxCell id="W1-9YPZCWMsQHMN3Iiyv-21" value="Executor" style="html=1;whiteSpace=wrap;fillColor=#00CCCC;" parent="1" vertex="1">
          <mxGeometry x="480" y="420" width="110" height="50" as="geometry" />
        </mxCell>
        <mxCell id="W1-9YPZCWMsQHMN3Iiyv-22" value="Configurator" style="html=1;whiteSpace=wrap;fillColor=#00CCCC;" parent="1" vertex="1">
          <mxGeometry x="490" y="120" width="110" height="50" as="geometry" />
        </mxCell>
        <mxCell id="W1-9YPZCWMsQHMN3Iiyv-23" value="File_Writer" style="html=1;whiteSpace=wrap;fillColor=#00CCCC;" parent="1" vertex="1">
          <mxGeometry x="720" y="275" width="110" height="50" as="geometry" />
        </mxCell>
        <mxCell id="W1-9YPZCWMsQHMN3Iiyv-24" value="output" style="whiteSpace=wrap;html=1;shape=mxgraph.basic.document" parent="1" vertex="1">
          <mxGeometry x="950" y="250" width="70" height="90" as="geometry" />
        </mxCell>
        <mxCell id="W1-9YPZCWMsQHMN3Iiyv-28" style="edgeStyle=orthogonalEdgeStyle;rounded=0;orthogonalLoop=1;jettySize=auto;html=1;exitX=1;exitY=0.5;exitDx=0;exitDy=0;entryX=-0.005;entryY=0.56;entryDx=0;entryDy=0;entryPerimeter=0;" parent="1" source="W1-9YPZCWMsQHMN3Iiyv-23" target="W1-9YPZCWMsQHMN3Iiyv-24" edge="1">
          <mxGeometry relative="1" as="geometry" />
        </mxCell>
        <mxCell id="gdSz_qL3XsIsF8Iudnw7-1" value="1.2.1: readConfiguration()" style="text;html=1;strokeColor=none;fillColor=none;align=center;verticalAlign=middle;whiteSpace=wrap;rounded=0;" vertex="1" parent="1">
          <mxGeometry x="330" y="90" width="140" height="20" as="geometry" />
        </mxCell>
        <mxCell id="gdSz_qL3XsIsF8Iudnw7-5" value="" style="shape=singleArrow;whiteSpace=wrap;html=1;fillColor=#000000;" vertex="1" parent="1">
          <mxGeometry x="380" y="110" width="50" height="20" as="geometry" />
        </mxCell>
        <mxCell id="gdSz_qL3XsIsF8Iudnw7-7" value="" style="shape=singleArrow;whiteSpace=wrap;html=1;fillColor=#000000;" vertex="1" parent="1">
          <mxGeometry x="385" y="410" width="50" height="20" as="geometry" />
        </mxCell>
        <mxCell id="gdSz_qL3XsIsF8Iudnw7-8" value="&lt;div&gt;1.2.3: executeStage(&lt;/div&gt;&lt;div&gt;instruction, cycle)&lt;/div&gt;" style="text;html=1;strokeColor=none;fillColor=none;align=center;verticalAlign=middle;whiteSpace=wrap;rounded=0;" vertex="1" parent="1">
          <mxGeometry x="328.5" y="370" width="143" height="32" as="geometry" />
        </mxCell>
        <mxCell id="gdSz_qL3XsIsF8Iudnw7-10" value="1.3: writeFile()" style="text;html=1;strokeColor=none;fillColor=none;align=center;verticalAlign=middle;whiteSpace=wrap;rounded=0;" vertex="1" parent="1">
          <mxGeometry x="607" y="385" width="140" height="20" as="geometry" />
        </mxCell>
        <mxCell id="gdSz_qL3XsIsF8Iudnw7-11" value="" style="shape=singleArrow;whiteSpace=wrap;html=1;fillColor=#000000;" vertex="1" parent="1">
          <mxGeometry x="658" y="405" width="50" height="20" as="geometry" />
        </mxCell>
        <mxCell id="gdSz_qL3XsIsF8Iudnw7-12" value="" style="shape=singleArrow;whiteSpace=wrap;html=1;fillColor=#000000;" vertex="1" parent="1">
          <mxGeometry x="870" y="270" width="50" height="20" as="geometry" />
        </mxCell>
        <mxCell id="gdSz_qL3XsIsF8Iudnw7-13" value="1.4: writes to" style="text;html=1;strokeColor=none;fillColor=none;align=center;verticalAlign=middle;whiteSpace=wrap;rounded=0;" vertex="1" parent="1">
          <mxGeometry x="860" y="250" width="70" height="20" as="geometry" />
        </mxCell>
        <mxCell id="gdSz_qL3XsIsF8Iudnw7-14" value="" style="endArrow=none;html=1;rounded=0;entryX=0.25;entryY=0;entryDx=0;entryDy=0;exitX=0.75;exitY=0;exitDx=0;exitDy=0;" edge="1" parent="1" source="W1-9YPZCWMsQHMN3Iiyv-12" target="W1-9YPZCWMsQHMN3Iiyv-17">
          <mxGeometry width="50" height="50" relative="1" as="geometry">
            <mxPoint x="535" y="210" as="sourcePoint" />
            <mxPoint x="550" y="350" as="targetPoint" />
            <Array as="points">
              <mxPoint x="323" y="220" />
              <mxPoint x="508" y="220" />
            </Array>
          </mxGeometry>
        </mxCell>
        <mxCell id="gdSz_qL3XsIsF8Iudnw7-15" value="" style="endArrow=none;html=1;rounded=0;entryX=0.75;entryY=0;entryDx=0;entryDy=0;exitX=0.5;exitY=0;exitDx=0;exitDy=0;exitPerimeter=0;" edge="1" parent="1" source="W1-9YPZCWMsQHMN3Iiyv-24" target="W1-9YPZCWMsQHMN3Iiyv-23">
          <mxGeometry width="50" height="50" relative="1" as="geometry">
            <mxPoint x="830" y="190" as="sourcePoint" />
            <mxPoint x="550" y="350" as="targetPoint" />
            <Array as="points">
              <mxPoint x="985" y="210" />
              <mxPoint x="803" y="210" />
            </Array>
          </mxGeometry>
        </mxCell>
      </root>
    </mxGraphModel>
  </diagram>
</mxfile>
